<svg width="221" height="134" viewBox="0 0 221 134" fill="none" xmlns="http://www.w3.org/2000/svg">
<path d="M8.00895 51.3964L35.3772 78.7647L62.7455 51.3964L69.7545 58.4054V98.1228L35.3772 132.5L1 98.1228V58.4054L8.00895 51.3964Z" fill="#52057B" stroke="#BC6FF1" stroke-width="2"/>
<path d="M34.7097 71.0882L8.00896 44.3875L34.7097 2L61.4105 44.3875L34.7097 71.0882Z" fill="#52057B" stroke="#BC6FF1" stroke-width="2"/>
<path d="M4.67136 59.7404L8.00895 56.4028L35.711 83.4373L62.7455 56.4028L64.7481 59.7404V96.1202L34.7097 126.159L4.67136 96.1202V59.7404Z" fill="#892CDC" stroke="white"/>
<path d="M34.376 65.7481L12.6816 44.0537L34.7097 6.00512L56.0703 44.0537L34.376 65.7481Z" fill="#892CDC" stroke="white"/>
<path d="M105.927 93.5L96.9272 78.55H96.7272H89.2272V93.5H86.9772V58.4H96.6272C100.527 58.4 103.444 59.3167 105.377 61.15C107.344 62.9833 108.327 65.4167 108.327 68.45C108.327 71.15 107.561 73.3833 106.027 75.15C104.527 76.8833 102.327 77.95 99.4272 78.35L108.627 93.5H105.927ZM89.2272 76.65H96.7272C99.8272 76.65 102.144 75.9 103.677 74.4C105.211 72.9 105.977 70.9167 105.977 68.45C105.977 63.0833 102.861 60.4 96.6272 60.4H89.2272V76.65ZM133.655 58.4V60.3H123.655V93.5H121.405V60.3H111.405V58.4H133.655ZM140.51 60.3V74.95H154.51V76.85H140.51V91.6H156.01V93.5H138.26V58.4H156.01V60.3H140.51ZM160.671 76C160.671 72.5333 161.388 69.45 162.821 66.75C164.288 64.0167 166.288 61.8833 168.821 60.35C171.388 58.8167 174.254 58.05 177.421 58.05C181.421 58.05 184.788 58.9833 187.521 60.85C190.254 62.7167 192.254 65.3333 193.521 68.7H190.921C189.921 66.0333 188.254 63.9333 185.921 62.4C183.621 60.8333 180.788 60.05 177.421 60.05C174.721 60.05 172.271 60.7 170.071 62C167.871 63.2667 166.138 65.1167 164.871 67.55C163.604 69.95 162.971 72.7667 162.971 76C162.971 79.2 163.604 82 164.871 84.4C166.138 86.7667 167.871 88.6 170.071 89.9C172.271 91.2 174.721 91.85 177.421 91.85C180.788 91.85 183.621 91.0833 185.921 89.55C188.254 87.9833 189.921 85.8667 190.921 83.2H193.521C192.254 86.5667 190.254 89.1833 187.521 91.05C184.788 92.9167 181.421 93.85 177.421 93.85C174.254 93.85 171.388 93.1 168.821 91.6C166.288 90.0667 164.288 87.95 162.821 85.25C161.388 82.5167 160.671 79.4333 160.671 76ZM219.198 58.4V60.3H209.198V93.5H206.948V60.3H196.948V58.4H219.198Z" fill="#892CDC"/>
</svg>
