<svg xmlns="http://www.w3.org/2000/svg" viewBox="0 0 500 500"><g id="freepik--background-simple--inject-510"><path d="M401.63,121.53l-2-3.28C382.86,90.59,352.52,73.92,320.53,76a83,83,0,0,0-12.24,1.68C279.2,83.85,253.9,105.85,243.41,134c-6.17,16.57-7.89,35.64-19.6,48.79-15.24,17.11-41.1,17.65-63.85,16.94s-48.62-.1-63.78,17.08c-9.5,10.76-12.52,26.06-11.75,40.47,2,38.15,28.61,72.26,62.42,89.21s73.61,18.48,110.61,11c51.83-10.45,101.12-39.14,130.75-83.46S425.34,169.36,401.63,121.53Z" style="fill:#f5f5f5"></path></g><g id="freepik--Character--inject-510"><path d="M286,386.13s.45-64.4,1.76-66.05c0,0-1.31-47.91-1.86-47.91H222.19c-.55,0-1.86,47.91-1.86,47.91,1.31,1.65,1.76,66.05,1.76,66.05a9.06,9.06,0,0,0-2.6,6.5c0,5.2,6.82,5.08,6.82,5.08h22.76s6.86-1.1,1.38-7.95v-62a3.58,3.58,0,0,1,3.58-3.59h0a3.58,3.58,0,0,1,3.58,3.59v62c-3.71,5.54,1.37,7.95,1.37,7.95h22.77s6.45,0,6.79-5.77A6.16,6.16,0,0,0,286,386.13Z" style="fill:#e0e0e0"></path><path d="M235.25,395.17c-.14,0-.26-17-.26-38s.12-38,.26-38,.26,17,.26,38S235.4,395.17,235.25,395.17Z" style="fill:#263238"></path><path d="M272.92,395.17c-.14,0-.26-17-.26-38s.12-38,.26-38,.27,17,.27,38S273.07,395.17,272.92,395.17Z" style="fill:#263238"></path><rect x="259.94" y="397.51" width="24.74" height="6.1" style="fill:#892CDC"></rect><rect x="259.94" y="403.62" width="24.74" height="72.02" style="fill:#263238"></rect><path d="M282.55,467.94s19.22,4.31,19.67,12H259.94v-11.6Z" style="fill:#263238"></path><rect x="259.94" y="479.32" width="42.27" height="2.7" style="fill:#455a64"></rect><path d="M284.38,421a3.15,3.15,0,0,1-.88-.32c-.56-.24-1.35-.63-2.29-1.15A35.09,35.09,0,0,1,269,408c-.58-.91-1-1.67-1.28-2.21a3.4,3.4,0,0,1-.37-.86c.07-.05.73,1.11,2,2.87a40.78,40.78,0,0,0,12.07,11.38C283.22,420.29,284.42,420.88,284.38,421Z" style="fill:#455a64"></path><path d="M273.47,447.14a1.27,1.27,0,0,1,0-.29c0-.23.05-.51.09-.87a33.22,33.22,0,0,0,.19-3.34,31.63,31.63,0,0,0-.43-5.25,23.28,23.28,0,0,0-.75-3.2,8.89,8.89,0,0,0-1.74-3.16,5.32,5.32,0,0,0-3.4-1.8,4.4,4.4,0,0,0-3.69,1.71,7.77,7.77,0,0,0-1.65,4.23,30.45,30.45,0,0,0-.09,5,20,20,0,0,0,2.92,10.11,12.44,12.44,0,0,0,4,3.87,9.49,9.49,0,0,0,5.48,1.32,7.74,7.74,0,0,0,5.09-2.25,12,12,0,0,0,2.68-4.84,26.09,26.09,0,0,0-1.86-19.76,24.79,24.79,0,0,0-5.14-6.64A26.46,26.46,0,0,0,264.57,416a26.82,26.82,0,0,0-3.26-.72l-.86-.13-.29-.06a19,19,0,0,1,4.46.71,26.14,26.14,0,0,1,10.78,5.87,25.17,25.17,0,0,1,5.28,6.71,26.37,26.37,0,0,1,2.93,9.35,26,26,0,0,1-1,10.77,12.35,12.35,0,0,1-2.79,5.06,8.31,8.31,0,0,1-5.42,2.4,10,10,0,0,1-5.78-1.4,12.7,12.7,0,0,1-4.13-4,20.44,20.44,0,0,1-3-10.38,32.68,32.68,0,0,1,.11-5.06,8.25,8.25,0,0,1,1.78-4.45,4.81,4.81,0,0,1,4.05-1.83,5.7,5.7,0,0,1,3.65,1.95,9.29,9.29,0,0,1,1.77,3.31,22.94,22.94,0,0,1,.73,3.25,29.24,29.24,0,0,1,.34,5.31,26.48,26.48,0,0,1-.28,3.34c-.06.38-.11.67-.15.86A1.25,1.25,0,0,1,273.47,447.14Z" style="fill:#455a64"></path><path d="M284.68,465a4.37,4.37,0,0,1-1.1.54,15.63,15.63,0,0,1-3.24.88,17.29,17.29,0,0,1-10.79-1.8,19.52,19.52,0,0,1-7.74-7.77,20.1,20.1,0,0,1-1.35-3.07,4.81,4.81,0,0,1-.3-1.19c.1,0,.56,1.67,2,4.08a20.19,20.19,0,0,0,7.67,7.49,17.62,17.62,0,0,0,5.63,1.85,18,18,0,0,0,4.86,0A31.4,31.4,0,0,0,284.68,465Z" style="fill:#455a64"></path><path d="M299.69,477.41s-.54-.24-1.53-.54a13,13,0,0,0-4.36-.4c-1.86.1-4.05.54-6.51.94a33,33,0,0,1-8.11.32,33.47,33.47,0,0,1-14-4.42,28.93,28.93,0,0,1-3.68-2.53,8.13,8.13,0,0,1-1.21-1.1,58.74,58.74,0,0,0,5.07,3.31,35,35,0,0,0,13.84,4.22,33.74,33.74,0,0,0,8-.27,56,56,0,0,1,6.56-.83,11.78,11.78,0,0,1,4.44.57,7.31,7.31,0,0,1,1.11.5A1.7,1.7,0,0,1,299.69,477.41Z" style="fill:#455a64"></path><rect x="224.35" y="397.51" width="24.74" height="6.1" style="fill:#892CDC"></rect><rect x="224.35" y="403.62" width="24.74" height="72.02" style="fill:#263238"></rect><path d="M226.75,467.94s-19,4.31-19.44,12h41.78v-11.6Z" style="fill:#263238"></path><rect x="207.31" y="479.17" width="41.78" height="2.86" style="fill:#455a64"></rect><path d="M242.17,403.36a10.89,10.89,0,0,1-.74,1.21,27.3,27.3,0,0,0-1.78,3.44,49.45,49.45,0,0,0-1.92,5.42c-.62,2.08-1.23,4.4-2,6.8a32.52,32.52,0,0,1-2.82,6.53,18.23,18.23,0,0,1-3.68,4.51,13,13,0,0,1-3.31,2.11,7.61,7.61,0,0,1-1,.36c-.23.06-.36.09-.36.07A16.06,16.06,0,0,0,229,431a19,19,0,0,0,3.52-4.48,33.81,33.81,0,0,0,2.73-6.45c.77-2.38,1.39-4.7,2-6.78a44.56,44.56,0,0,1,2-5.43,22.29,22.29,0,0,1,1.95-3.4c.27-.37.49-.66.65-.84S242.16,403.34,242.17,403.36Z" style="fill:#455a64"></path><path d="M224.48,463.66a1.3,1.3,0,0,1-.08-.33,6.63,6.63,0,0,1-.12-1,10.13,10.13,0,0,1,.53-3.64,14.33,14.33,0,0,1,2.89-4.88,38.26,38.26,0,0,1,5.44-4.84l.29.37-1,.87-.3-.38c2.94-2.2,5-5.92,6.07-10s1.39-8.27,1.93-12a34.14,34.14,0,0,1,2.52-9.64,16.59,16.59,0,0,1,3.85-5.5,11.81,11.81,0,0,1,1.45-1.12,4.07,4.07,0,0,1,.56-.32c0,.05-.74.5-1.87,1.59a17.15,17.15,0,0,0-3.65,5.5,34.59,34.59,0,0,0-2.38,9.56c-.52,3.69-.76,7.83-1.91,12s-3.2,8-6.28,10.24l-.3-.37,1-.86.3.37a38.69,38.69,0,0,0-5.44,4.72,14.18,14.18,0,0,0-2.91,4.71,10.4,10.4,0,0,0-.65,3.54C224.44,463.2,224.52,463.65,224.48,463.66Z" style="fill:#455a64"></path><path d="M234,472.11l-.06-.22c0-.15-.08-.37-.12-.66a9.24,9.24,0,0,1,.07-2.58,10.59,10.59,0,0,1,1.48-3.8,9.56,9.56,0,0,1,4.07-3.55,5.86,5.86,0,0,1,3.14-.53,3.52,3.52,0,0,1,1.64.6,2.81,2.81,0,0,1,1.08,1.47,5.66,5.66,0,0,1-.49,3.68c-.49,1.16-1,2.33-1.6,3.52a16.44,16.44,0,0,1-5.14,6.52,9.2,9.2,0,0,1-4.2,1.47,6.9,6.9,0,0,1-4.46-1,6.17,6.17,0,0,1-1.63-1.71,7.2,7.2,0,0,1-.85-2.15,10.88,10.88,0,0,1,0-4.44,19.42,19.42,0,0,1,3.4-7.58c3.11-4.34,6.92-7.3,9.9-9.92a53.72,53.72,0,0,0,6.72-6.56c.71-.86,1.22-1.55,1.55-2a4.83,4.83,0,0,1,.53-.73,7,7,0,0,1-.44.78,22,22,0,0,1-1.48,2.11,51.4,51.4,0,0,1-6.64,6.71c-3,2.65-6.72,5.63-9.75,9.91a19.21,19.21,0,0,0-3.29,7.4,10.62,10.62,0,0,0,0,4.24,5.69,5.69,0,0,0,2.26,3.54,6.39,6.39,0,0,0,4.13,1,8.59,8.59,0,0,0,4-1.38,16,16,0,0,0,5-6.31c.58-1.16,1.11-2.34,1.6-3.47a5.25,5.25,0,0,0,.51-3.38,2.67,2.67,0,0,0-2.36-1.8,5.39,5.39,0,0,0-2.94.47,9.23,9.23,0,0,0-4,3.37,10.36,10.36,0,0,0-1.53,3.68A12,12,0,0,0,234,472.11Z" style="fill:#455a64"></path><path d="M221.91,480a17,17,0,0,0-2.82-4.65,16.26,16.26,0,0,0-4.48-3.08,3.67,3.67,0,0,1,1.59.42,10.11,10.11,0,0,1,5.37,5.7A3.52,3.52,0,0,1,221.91,480Z" style="fill:#455a64"></path><path d="M290.39,146.1c-2.19-2.75-3.53-6.06-5-9.27s-3.07-6.43-5.67-8.8l-20.89,39.1a26.06,26.06,0,0,0,12.68,1.62A46.38,46.38,0,0,0,284,165.41c2.32-.93,1.51-7.25,1.51-7.25s3,5.8,3.85,5.05c2.8-2.36,9.23-8.65,10-12.24C295.81,151,292.58,148.85,290.39,146.1Z" style="fill:#e0e0e0"></path><path d="M223.82,144.71c2.18-2.75,3.52-6.06,5-9.27s3.07-6.43,5.66-8.8l20.9,39.1a26.1,26.1,0,0,1-12.69,1.61A46.19,46.19,0,0,1,230.21,164c-2.31-.93-1.5-7.25-1.5-7.25s-3,5.8-3.85,5c-2.81-2.36-9.23-8.65-10-12.24C218.39,149.62,221.63,147.46,223.82,144.71Z" style="fill:#e0e0e0"></path><path d="M233.15,123.29l-2,31s-.86,10.52,14.68,11.74a145.61,145.61,0,0,0,22.38,0s12.36-2.2,13.34-11.13l-2.33-31.56Z" style="fill:#ffbf9d"></path><circle cx="272.92" cy="146.42" r="3.65" style="fill:#892CDC"></circle><path d="M236.31,163.21a41,41,0,0,0,2.31-5.33,24.3,24.3,0,0,0,.37-13.77,30.34,30.34,0,0,0-2.86-7.12,38.77,38.77,0,0,1-2.81-5.72,11.28,11.28,0,0,1-.68-4.24,7.11,7.11,0,0,1,.17-1.17c.06-.25.11-.39.13-.38s-.1.55-.09,1.55a11.7,11.7,0,0,0,.82,4.12,41.28,41.28,0,0,0,2.88,5.61,29.71,29.71,0,0,1,2.94,7.22,23.78,23.78,0,0,1-.52,14c-.28.86-.64,1.6-.92,2.26s-.62,1.2-.87,1.64A9,9,0,0,1,236.31,163.21Z" style="fill:#ff9a6c"></path><path d="M249.33,164.82c-.05,0,.29-.54.72-1.56a13.6,13.6,0,0,0,1-4.5,19.5,19.5,0,0,0-1-6.76,40.57,40.57,0,0,0-3.56-7.64c-1.48-2.62-3-5.09-4.1-7.47a28.19,28.19,0,0,1-2.24-6.61,16.18,16.18,0,0,1-.22-4.7,9.79,9.79,0,0,1,.21-1.26,1.59,1.59,0,0,1,.13-.43,19.5,19.5,0,0,0,.24,6.32,28.66,28.66,0,0,0,2.32,6.47c1.13,2.34,2.62,4.79,4.12,7.42a40,40,0,0,1,3.56,7.76,19.19,19.19,0,0,1,.86,6.92,12.73,12.73,0,0,1-1.16,4.57,9,9,0,0,1-.63,1.11A1.73,1.73,0,0,1,249.33,164.82Z" style="fill:#ff9a6c"></path><path d="M264.71,165.51a13.34,13.34,0,0,1,.4-1.77,12.16,12.16,0,0,0,.44-4.83,9.61,9.61,0,0,0-1.14-3.13,12.74,12.74,0,0,0-2.43-3A27.63,27.63,0,0,1,256.1,146a24.5,24.5,0,0,1-2.92-15.92,21.85,21.85,0,0,1,1.33-4.79l.58-1.22c.14-.27.22-.42.24-.41a29.67,29.67,0,0,0-1.79,6.48,25.31,25.31,0,0,0,.08,7.25,24.41,24.41,0,0,0,2.94,8.35,27.74,27.74,0,0,0,5.76,6.75,13.2,13.2,0,0,1,2.47,3.11,9.81,9.81,0,0,1,1.12,3.29,11.69,11.69,0,0,1-.61,4.94c-.17.56-.31,1-.41,1.28A1.66,1.66,0,0,1,264.71,165.51Z" style="fill:#ff9a6c"></path><path d="M271.69,134.33a1.92,1.92,0,0,1-.62.19,3.74,3.74,0,0,1-1.86-.16,4.52,4.52,0,0,1-2.32-1.82,4.24,4.24,0,0,1-.33-3.87,5.28,5.28,0,0,1,3.47-3.18,6.13,6.13,0,0,1,5.28,1.15A7.26,7.26,0,0,1,278,132a9.49,9.49,0,0,1-1.89,6.16,11.16,11.16,0,0,1-5.05,4,6.4,6.4,0,0,1-3.12.32,7.39,7.39,0,0,1-2.78-1.11,12.3,12.3,0,0,1-3.73-4,15,15,0,0,1-1.79-11.19,11.4,11.4,0,0,1,.56-1.77,2.7,2.7,0,0,1,.28-.58s-.32.83-.65,2.4a15.33,15.33,0,0,0,.16,6.67,15,15,0,0,0,1.81,4.25,12.06,12.06,0,0,0,3.62,3.79,6.82,6.82,0,0,0,2.6,1,5.9,5.9,0,0,0,2.87-.3,10.75,10.75,0,0,0,4.8-3.85,9,9,0,0,0,1.8-5.82,6.75,6.75,0,0,0-2.47-5,5.71,5.71,0,0,0-4.88-1.11,4.86,4.86,0,0,0-3.23,2.9,3.91,3.91,0,0,0,.22,3.57,4.4,4.4,0,0,0,2.15,1.79A4.29,4.29,0,0,0,271.69,134.33Z" style="fill:#ff9a6c"></path><path d="M280.92,145.61c0,.06-.95.83-2.43,2.21a31,31,0,0,0-2.46,2.56,15.17,15.17,0,0,0-2.35,3.59,17.27,17.27,0,0,0-1.4,4.07,14.79,14.79,0,0,0-.27,3.5c.07,2,.3,3.26.21,3.28A3.25,3.25,0,0,1,272,164a18.46,18.46,0,0,1-.34-2.4,14.28,14.28,0,0,1,.17-3.61,16.85,16.85,0,0,1,1.4-4.2,14.75,14.75,0,0,1,2.46-3.69,26.86,26.86,0,0,1,2.57-2.51A12.27,12.27,0,0,1,280.92,145.61Z" style="fill:#ff9a6c"></path><path d="M269.27,140.88a2.63,2.63,0,1,1-2.63-2.63A2.63,2.63,0,0,1,269.27,140.88Z" style="fill:#263238"></path><path d="M271.14,135.41a2.93,2.93,0,0,1-1.81,1.29,10.91,10.91,0,0,1-2.61.47,10.52,10.52,0,0,1-2.66-.11,2.9,2.9,0,0,1-2-1,1.94,1.94,0,0,1,.47-2.33,6,6,0,0,1,7.8-.54A1.94,1.94,0,0,1,271.14,135.41Z" style="fill:#263238"></path><path d="M249,140.88a2.63,2.63,0,1,1-2.63-2.63A2.63,2.63,0,0,1,249,140.88Z" style="fill:#263238"></path><path d="M250.89,135.41a3,3,0,0,1-1.81,1.29,11,11,0,0,1-2.62.47,10.42,10.42,0,0,1-2.65-.11,2.9,2.9,0,0,1-2-1,1.92,1.92,0,0,1,.46-2.33,6,6,0,0,1,7.8-.54A1.94,1.94,0,0,1,250.89,135.41Z" style="fill:#263238"></path><path d="M255.66,137.32,253.27,146a1.53,1.53,0,0,0,1.48,1.94h2.58a1.53,1.53,0,0,0,1.46-2L256,137.31A.18.18,0,0,0,255.66,137.32Z" style="fill:#ff9a6c"></path><rect x="248.5" y="153.79" width="14.61" height="8.27" style="fill:#fff"></rect><path d="M262.65,158.33a49,49,0,0,1-7.07.26,49,49,0,0,1-7.08-.26,47.38,47.38,0,0,1,7.08-.26A47.29,47.29,0,0,1,262.65,158.33Z" style="fill:#ffbf9d"></path><path d="M252.39,154.61a12.94,12.94,0,0,1,.27,3.71,12.89,12.89,0,0,1-.27,3.7,13.58,13.58,0,0,1-.26-3.7A13.62,13.62,0,0,1,252.39,154.61Z" style="fill:#ffbf9d"></path><path d="M255.92,153.79a16.32,16.32,0,0,1,.26,4.14,16.28,16.28,0,0,1-.26,4.13,16.84,16.84,0,0,1-.26-4.13A16.89,16.89,0,0,1,255.92,153.79Z" style="fill:#ffbf9d"></path><path d="M259.54,154.61a13.62,13.62,0,0,1,.26,3.71,13.58,13.58,0,0,1-.26,3.7,13.58,13.58,0,0,1-.26-3.7A13.62,13.62,0,0,1,259.54,154.61Z" style="fill:#ffbf9d"></path><path d="M268.11,158.16c-1.37,1.63-4.6,1.43-7.94-.38s-5.36-4.66-4.5-6.64,4.66-2.2,8.28-.2a10.3,10.3,0,0,1,4,3.7C268.7,156,268.79,157.33,268.11,158.16Z" style="fill:#e0e0e0"></path><path d="M256.18,150.94c.75,2-1,4.71-4.22,6.74s-6.68,2.4-8,.68.36-5.14,3.87-7.32a10.49,10.49,0,0,1,5.17-1.66C254.58,149.37,255.78,149.94,256.18,150.94Z" style="fill:#e0e0e0"></path><path d="M243.93,146.42a3.65,3.65,0,1,1-3.65-3.65A3.65,3.65,0,0,1,243.93,146.42Z" style="fill:#892CDC"></path><path d="M284.9,48.86H225.55a9.88,9.88,0,0,0-9.73,11.63L227.7,126.8a3.86,3.86,0,0,0,3.8,3.18h49.81a3.86,3.86,0,0,0,3.82-3.32l9.56-66.51A9.89,9.89,0,0,0,284.9,48.86Z" style="fill:#263238"></path><path d="M281.76,77.47c-2.88,0-5.21-1.69-5.21-3.79s2.33-3.79,5.21-3.79,5.2,1.7,5.2,3.79S284.63,77.47,281.76,77.47Z" style="fill:#892CDC"></path><path d="M232.61,77.47c-2.88,0-5.21-1.69-5.21-3.79s2.33-3.79,5.21-3.79,5.21,1.7,5.21,3.79S235.48,77.47,232.61,77.47Z" style="fill:#892CDC"></path><path d="M227.38,125H285.3L285,128a2.23,2.23,0,0,1-2.22,2H231a3.59,3.59,0,0,1-3.59-3.59Z" style="fill:#892CDC"></path><path d="M281.67,75.44c.16.08-.08,1-.74,2.46a34.8,34.8,0,0,1-3.45,6,29.77,29.77,0,0,1-7.4,7.41,21.89,21.89,0,0,1-12.35,4,24.5,24.5,0,0,1-12.45-3.56,30.19,30.19,0,0,1-7.88-6.9,33.13,33.13,0,0,1-3.84-5.82c-.74-1.46-1-2.33-.87-2.42s.74.61,1.73,1.88a63.25,63.25,0,0,0,4.36,5.14,32.69,32.69,0,0,0,7.69,6,23.57,23.57,0,0,0,11.25,3,20.73,20.73,0,0,0,11-3.41A31.7,31.7,0,0,0,276,82.83c1.82-2.17,3.1-4.1,4-5.42S281.5,75.36,281.67,75.44Z" style="fill:#892CDC"></path><path d="M282.45,73.68c.19,0,.23,1.4.24,3.89,0,1.25,0,2.77-.05,4.55a41.08,41.08,0,0,1-.59,6.09A35.07,35.07,0,0,1,280,95.38a32.11,32.11,0,0,1-1.77,3.8,25.37,25.37,0,0,1-2.52,3.72,23.73,23.73,0,0,1-17.49,8.88,22.38,22.38,0,0,1-18-7.81,30.55,30.55,0,0,1-4.44-7.43,55.56,55.56,0,0,1-2.44-7A51.29,51.29,0,0,1,231.54,79c-.13-2.52,0-3.91.18-3.92s.39,1.36.83,3.8A72.58,72.58,0,0,0,235.08,89a60.21,60.21,0,0,0,2.64,6.65,29.32,29.32,0,0,0,4.29,6.76,20.4,20.4,0,0,0,16.07,6.77,21.53,21.53,0,0,0,9-2.38,21.94,21.94,0,0,0,6.78-5.42A26.21,26.21,0,0,0,278,94.54a36.63,36.63,0,0,0,2.28-6.7,98.24,98.24,0,0,0,1.43-10.33C282,75,282.28,73.66,282.45,73.68Z" style="fill:#892CDC"></path><polygon points="204.82 174.23 223.8 262.7 283.63 262.7 297.65 174.23 204.82 174.23" style="fill:#892CDC"></polygon><g style="opacity:0.30000000000000004"><path d="M214.2,217.35s.52-.46,1.39-1.35a21.58,21.58,0,0,0,3.11-4.22,34.25,34.25,0,0,0,3-7.2c.85-2.81,1.49-6,2.18-9.34a68.16,68.16,0,0,1,2.44-9.34,28,28,0,0,1,3.59-7,17.44,17.44,0,0,1,3.7-3.83,12.24,12.24,0,0,1,1.21-.79,1.82,1.82,0,0,1,.45-.22s-.57.39-1.54,1.17a18.93,18.93,0,0,0-3.52,3.88,29.2,29.2,0,0,0-3.44,7,73.26,73.26,0,0,0-2.38,9.28c-.69,3.34-1.35,6.54-2.23,9.38A32.35,32.35,0,0,1,219,212a19.13,19.13,0,0,1-3.29,4.18,12.28,12.28,0,0,1-1.11.93C214.36,217.27,214.21,217.37,214.2,217.35Z"></path></g><g style="opacity:0.30000000000000004"><path d="M269.69,174.23a4.79,4.79,0,0,1-.69.53c-.46.33-1.15.8-2.06,1.37a86.1,86.1,0,0,1-8,4.34c-3.44,1.71-7.62,3.58-12,6.11a45.22,45.22,0,0,0-6.5,4.51,43.93,43.93,0,0,0-5.86,6.14,62.53,62.53,0,0,0-8.25,14.18c-1.94,4.68-3.34,9-4.51,12.69l-2.7,8.68c-.31,1-.56,1.78-.75,2.36a4.59,4.59,0,0,1-.3.81s.06-.29.2-.84.38-1.38.66-2.38c.58-2.07,1.42-5.06,2.54-8.74s2.49-8.05,4.42-12.76a62,62,0,0,1,8.28-14.32,43.34,43.34,0,0,1,5.94-6.21,44.61,44.61,0,0,1,6.59-4.54c4.43-2.52,8.63-4.36,12.08-6s6.22-3.09,8.06-4.18c.93-.54,1.64-1,2.11-1.29A6.53,6.53,0,0,1,269.69,174.23Z"></path></g><g style="opacity:0.30000000000000004"><path d="M230.3,262.25s-.05-.08-.11-.26-.15-.46-.26-.77c-.23-.69-.55-1.7-1-3a60.33,60.33,0,0,1-2.44-11.36,30.91,30.91,0,0,1,.23-8,35.61,35.61,0,0,1,2.69-8.83c2.64-6,6.86-11.82,11.68-17.53,9.74-11.43,20.53-19.81,28.15-25.91a39,39,0,0,0,8-8.31,18.8,18.8,0,0,0,1.87-3.8,1.29,1.29,0,0,1-.07.27c-.06.21-.14.47-.23.79a15.78,15.78,0,0,1-1.39,2.84,37.88,37.88,0,0,1-7.9,8.5c-7.58,6.18-18.29,14.57-28,26-4.8,5.69-9,11.5-11.64,17.39a35.65,35.65,0,0,0-2.71,8.7,31.14,31.14,0,0,0-.28,7.93,64.37,64.37,0,0,0,2.26,11.33c.37,1.29.65,2.3.86,3,.09.32.16.58.21.79A1,1,0,0,1,230.3,262.25Z"></path></g><g style="opacity:0.30000000000000004"><path d="M263.28,227.89a1.48,1.48,0,0,1-.09.36l-.32,1a32.88,32.88,0,0,0-.92,4.05,31.08,31.08,0,0,0,1.3,15,15.67,15.67,0,0,0,2.31,4.43,7.25,7.25,0,0,0,4.28,3,4.9,4.9,0,0,0,2.72-.28,6.59,6.59,0,0,0,2.34-1.67,14.84,14.84,0,0,0,2.93-5.36,40.55,40.55,0,0,0,1.85-13.15,40,40,0,0,0-.79-7,24,24,0,0,0-2.35-6.81,11.31,11.31,0,0,0-5-4.95,13.2,13.2,0,0,0-6.8-1.08A19.74,19.74,0,0,0,253,221.12a28,28,0,0,0-6.64,9.94,33.45,33.45,0,0,0-2.2,10.24,43.78,43.78,0,0,0,.31,8.68,56,56,0,0,0,1.25,6.46c.45,1.74.86,3.09,1.15,4l.33,1a1.61,1.61,0,0,1,.09.35s-.05-.11-.14-.34-.22-.59-.38-1c-.32-.9-.76-2.24-1.25-4A55.56,55.56,0,0,1,244.2,250a43.9,43.9,0,0,1-.39-8.74A34.07,34.07,0,0,1,246,230.9a28.4,28.4,0,0,1,6.71-10.13,20.21,20.21,0,0,1,12-5.78,13.54,13.54,0,0,1,7.06,1.13,11.8,11.8,0,0,1,5.23,5.16,24.79,24.79,0,0,1,2.4,7,41,41,0,0,1,.79,7.09,40.46,40.46,0,0,1-1.91,13.31,15.13,15.13,0,0,1-3,5.52,7.18,7.18,0,0,1-2.5,1.77,5.42,5.42,0,0,1-3,.3,7.68,7.68,0,0,1-4.52-3.18,16.14,16.14,0,0,1-2.34-4.55,30.84,30.84,0,0,1-1.15-15.2A23.91,23.91,0,0,1,263.28,227.89Z"></path></g><g style="opacity:0.30000000000000004"><path d="M290.29,184.06s-.44.51-1.22,1.41a30.18,30.18,0,0,0-3,4.09,31.55,31.55,0,0,0-.69,31.85,31.47,31.47,0,0,0,2.8,4.22c.74.94,1.18,1.44,1.15,1.47a1.84,1.84,0,0,1-.36-.32c-.22-.24-.57-.55-1-1a27.53,27.53,0,0,1-3-4.17,31,31,0,0,1,.7-32.22,25.88,25.88,0,0,1,3.15-4c.4-.45.76-.75,1-1S290.27,184,290.29,184.06Z"></path></g><g style="opacity:0.30000000000000004"><path d="M220.72,322.88H250s2.88-22.88,2.6-22.63S256,322.08,256,322.08H286.9l1.65-5.94-21.94-24.93L253.1,274.42l-9.61,1.42-22.35,30.61-.78,13Z"></path></g><polygon points="220.8 271.71 211.56 319.14 248.3 318.95 254.35 271.71 220.8 271.71" style="fill:#892CDC"></polygon><polygon points="288.26 271.74 296.6 319.18 259.85 318.99 253.81 271.74 288.26 271.74" style="fill:#892CDC"></polygon><polygon points="289.1 271.94 220.36 272.37 222.43 262.8 286.65 262.8 289.1 271.94" style="fill:#455a64"></polygon><rect x="243.93" y="165.46" width="23.7" height="9.65" style="fill:#892CDC"></rect><rect x="210.77" y="170.2" width="33.16" height="3.93" style="fill:#455a64"></rect><path d="M268.1,204H241.49a7.22,7.22,0,0,1-7.22-7.22h0a7.22,7.22,0,0,1,7.22-7.22H268.1a7.22,7.22,0,0,1,7.22,7.22h0A7.22,7.22,0,0,1,268.1,204Z" style="fill:#263238"></path><path d="M243.93,196.85a2.84,2.84,0,1,1-2.84-2.84A2.84,2.84,0,0,1,243.93,196.85Z" style="fill:#e0e0e0"></path><path d="M271.47,196.85a2.84,2.84,0,1,1-2.84-2.84A2.84,2.84,0,0,1,271.47,196.85Z" style="fill:#e0e0e0"></path><path d="M241.22,197.4h20.65a.63.63,0,0,0,0-1.25h-.62v1.25H270a.63.63,0,0,0,0-1.25h-8.7a.63.63,0,0,0,0,1.25h.62v-1.25H241.22a.63.63,0,0,0,0,1.25Z" style="fill:#e0e0e0"></path><path d="M268.1,226H241.49a7.22,7.22,0,0,1-7.22-7.22h0a7.22,7.22,0,0,1,7.22-7.22H268.1a7.22,7.22,0,0,1,7.22,7.22h0A7.22,7.22,0,0,1,268.1,226Z" style="fill:#263238"></path><path d="M243.93,218.85a2.84,2.84,0,1,1-2.84-2.84A2.84,2.84,0,0,1,243.93,218.85Z" style="fill:#e0e0e0"></path><path d="M271.47,218.85a2.84,2.84,0,1,1-2.84-2.84A2.84,2.84,0,0,1,271.47,218.85Z" style="fill:#e0e0e0"></path><path d="M241.22,219.41h20.65a.63.63,0,0,0,0-1.25h-.62v1.25H270a.63.63,0,0,0,0-1.25h-8.7a.63.63,0,0,0,0,1.25h.62v-1.25H241.22a.63.63,0,0,0,0,1.25Z" style="fill:#e0e0e0"></path><path d="M268.1,248H241.49a7.22,7.22,0,0,1-7.22-7.22h0a7.22,7.22,0,0,1,7.22-7.22H268.1a7.22,7.22,0,0,1,7.22,7.22h0A7.22,7.22,0,0,1,268.1,248Z" style="fill:#263238"></path><path d="M243.93,240.86a2.84,2.84,0,1,1-2.84-2.84A2.84,2.84,0,0,1,243.93,240.86Z" style="fill:#e0e0e0"></path><path d="M271.47,240.86a2.84,2.84,0,1,1-2.84-2.84A2.84,2.84,0,0,1,271.47,240.86Z" style="fill:#e0e0e0"></path><path d="M241.22,241.41h20.65a.63.63,0,0,0,0-1.25h-.62v1.25H270a.63.63,0,0,0,0-1.25h-8.7a.63.63,0,0,0,0,1.25h.62v-1.25H241.22a.63.63,0,0,0,0,1.25Z" style="fill:#e0e0e0"></path><rect x="267.47" y="170.2" width="27.41" height="3.93" transform="translate(562.35 344.34) rotate(180)" style="fill:#455a64"></rect><g style="opacity:0.30000000000000004"><polygon points="214.55 181.32 275.32 256.91 280.83 250.55 214.53 175.95 214.55 181.32"></polygon></g><path d="M211.53,174.13c.51,0,70.93,88.47,70.93,88.47l1.17.1,2.31-11.7-59.11-76.87Z" style="fill:#e0e0e0"></path><rect x="245.37" y="259.76" width="19.04" height="14.34" rx="3.32" style="fill:#263238"></rect><g style="opacity:0.30000000000000004"><path d="M229.74,271.2c.14,0-1.81,10.57-4.35,23.55s-4.71,23.48-4.85,23.46,1.8-10.58,4.34-23.56S229.59,271.17,229.74,271.2Z"></path></g><g style="opacity:0.30000000000000004"><path d="M241.17,272.47a1.4,1.4,0,0,1,0,.47c0,.36-.11.81-.18,1.34-.2,1.24-.45,2.9-.76,4.91-.65,4.14-1.53,9.87-2.43,16.21s-1.64,12.08-2.17,16.24c-.26,2-.47,3.69-.63,4.93l-.2,1.34a1.31,1.31,0,0,1-.1.46,1.4,1.4,0,0,1,0-.47c0-.37.06-.82.1-1.35.09-1.17.25-2.86.47-4.95.43-4.17,1.12-9.93,2-16.28s1.84-12.06,2.58-16.19c.38-2.07.69-3.74.93-4.89.11-.52.2-1,.28-1.32S241.15,272.46,241.17,272.47Z"></path></g><g style="opacity:0.30000000000000004"><path d="M272,318.38c-.14,0-2.5-10.08-5.26-22.57s-4.89-22.65-4.75-22.68,2.5,10.07,5.26,22.57S272.15,318.34,272,318.38Z"></path></g><g style="opacity:0.30000000000000004"><path d="M287.58,318.47c-.14,0-2.91-10.3-6.19-23.09s-5.82-23.19-5.68-23.23,2.91,10.3,6.19,23.1S287.72,318.44,287.58,318.47Z"></path></g><g style="opacity:0.30000000000000004"><path d="M292,271.84a2.4,2.4,0,0,0-2.74-2l-6.8,1-.51-3.13h0l-.55-3.43a6.25,6.25,0,0,0,1.17-4.78,6.47,6.47,0,0,0-7.4-5.31,6.33,6.33,0,0,0-3,11.28l.83,5.1-.14.05.26,1.66-7.34,1.13a2.35,2.35,0,0,0-2,2.69h0a2.4,2.4,0,0,0,2.74,2l7.32-1.13,13.72,87.77V340.27l-4.37-64.69,6.81-1.05A2.35,2.35,0,0,0,292,271.84Z"></path></g><path d="M275.17,268.4l15.6,99.74s2.1,18.44,13.23,21.15l-19.74-123.8Z" style="fill:#263238"></path><polygon points="285.14 270.96 275.96 272.37 273.69 258.32 282.87 256.91 285.14 270.96" style="fill:#e0e0e0"></polygon><path d="M292.32,272.24l-23.48,3.61a2.39,2.39,0,0,1-2.73-2h0a2.35,2.35,0,0,1,2-2.69l23.47-3.6a2.4,2.4,0,0,1,2.74,2h0A2.35,2.35,0,0,1,292.32,272.24Z" style="fill:#455a64"></path><path d="M284.88,257.28a6.36,6.36,0,0,1-5.37,7.28,6.49,6.49,0,0,1-7.41-5.32,6.37,6.37,0,0,1,5.37-7.28A6.49,6.49,0,0,1,284.88,257.28Z" style="fill:#455a64"></path><path d="M296.05,306.11a12.09,12.09,0,1,1,12.5,11.66A12.07,12.07,0,0,1,296.05,306.11Z" style="fill:#ffbf9d"></path><path d="M309.37,294.17c.09,0,.09,1.11.42,2.85a19.64,19.64,0,0,0,7,11.59c1.38,1.11,2.35,1.63,2.31,1.72a2.42,2.42,0,0,1-.72-.3,12.43,12.43,0,0,1-1.82-1.13,17.88,17.88,0,0,1-7.09-11.82,13,13,0,0,1-.14-2.13C309.3,294.45,309.33,294.17,309.37,294.17Z" style="fill:#ff9a6c"></path><path d="M309.53,317.59c-.1,0,.2-1.34.34-3.52a27.53,27.53,0,0,0-4.08-16.2c-1.15-1.84-2-2.87-2-2.93s.26.21.68.67a18.05,18.05,0,0,1,1.59,2.06,23.81,23.81,0,0,1,1.91,3.38,27.58,27.58,0,0,1,1.59,4.48,28,28,0,0,1,.72,4.7,25.18,25.18,0,0,1-.08,3.87,18.4,18.4,0,0,1-.43,2.58A3.58,3.58,0,0,1,309.53,317.59Z" style="fill:#ff9a6c"></path><path d="M299.13,306.79a1.19,1.19,0,0,1,.37.15,5.85,5.85,0,0,1,.95.62,6.62,6.62,0,0,1,2.22,3.52,2,2,0,0,1-.14,1.48,1.16,1.16,0,0,1-.71.5A1.44,1.44,0,0,1,301,313a3.4,3.4,0,0,1-1.3-1.05,10.37,10.37,0,0,1-1-1.39,10.64,10.64,0,0,1-1.34-3.44,10.4,10.4,0,0,1-.2-1.95,3.72,3.72,0,0,1,.48-2,2.17,2.17,0,0,1,1.9-1,3.15,3.15,0,0,1,1.92.7,10.09,10.09,0,0,1,2.26,2.93,19.32,19.32,0,0,1,2.17,5.78,18.17,18.17,0,0,1,.37,4.14,9.06,9.06,0,0,1-.08,1.13c0,.26-.05.39-.07.39a28,28,0,0,0-.58-5.58,20,20,0,0,0-2.22-5.62,10.28,10.28,0,0,0-2.15-2.77,2.75,2.75,0,0,0-1.62-.59,1.7,1.7,0,0,0-1.47.74,3.21,3.21,0,0,0-.39,1.75,9.44,9.44,0,0,0,.18,1.85,10.37,10.37,0,0,0,2.2,4.64,3.23,3.23,0,0,0,1.13.95.82.82,0,0,0,1.07-.22,1.64,1.64,0,0,0,.12-1.18,6.61,6.61,0,0,0-2-3.44C299.6,307.07,299.1,306.83,299.13,306.79Z" style="fill:#ff9a6c"></path><path d="M313.65,294.81c.09,0-.06.63,0,1.6a6.08,6.08,0,0,0,4.45,5.51c.94.28,1.57.27,1.57.35a2.77,2.77,0,0,1-1.66,0,5.89,5.89,0,0,1-4.73-5.85A2.87,2.87,0,0,1,313.65,294.81Z" style="fill:#ff9a6c"></path><g style="opacity:0.30000000000000004"><path d="M294.65,202l-.9-30.68-1.23-1.54a2.87,2.87,0,0,0-2.31,2,8.5,8.5,0,0,0-.29,3.22l.39,9.56.54,13.22c.07,1.84.2,3.84,1.39,5.25.48.56,1.33,1,1.93.57A1.85,1.85,0,0,0,294.65,202Z"></path></g><rect x="295.11" y="179.52" width="24.23" height="118.08" style="fill:#892CDC"></rect><g style="opacity:0.30000000000000004"><path d="M319.07,239.69c-.06,0,0-.92-.13-2.57a34.88,34.88,0,0,0-5.17-16.32,35.74,35.74,0,0,0-3.66-4.86c-1.4-1.58-3-3.14-4.49-4.81a32.18,32.18,0,0,1-4.05-5.25,26.55,26.55,0,0,1-2.55-5.63A42.61,42.61,0,0,1,297.23,190c-.19-3-.17-5.35-.16-7,0-.78,0-1.41.05-1.9a2.69,2.69,0,0,1,.05-.67,2.69,2.69,0,0,1,.05.67c0,.48,0,1.12.06,1.9,0,1.65.08,4,.32,7a44.07,44.07,0,0,0,1.88,10.14,26.6,26.6,0,0,0,2.53,5.51,31.82,31.82,0,0,0,4,5.16c1.51,1.66,3.07,3.22,4.48,4.82a35.3,35.3,0,0,1,3.69,5,33.81,33.81,0,0,1,4,9.61,32.64,32.64,0,0,1,1,7c0,.83,0,1.47,0,1.91A2.89,2.89,0,0,1,319.07,239.69Z"></path></g><g style="opacity:0.30000000000000004"><path d="M319,206.39a3.2,3.2,0,0,1-.78-.49c-.48-.35-1.17-.87-2-1.54a58.89,58.89,0,0,1-6-5.73c-1.09-1.2-2.08-2.38-3-3.48a15.62,15.62,0,0,1-2-3.14,4.47,4.47,0,0,1-.44-2.51,1.72,1.72,0,0,1,.33-.88s-.09.33-.12.9a4.61,4.61,0,0,0,.56,2.33,16.24,16.24,0,0,0,2.1,3c.88,1.08,1.87,2.24,3,3.43,2.16,2.38,4.27,4.38,5.84,5.8A33.12,33.12,0,0,1,319,206.39Z"></path></g><g style="opacity:0.30000000000000004"><path d="M295.91,224a6.13,6.13,0,0,1,1.38-.19,18.89,18.89,0,0,1,3.78.17,20.22,20.22,0,0,1,17.11,16.18,17.89,17.89,0,0,1,.37,3.77,5.85,5.85,0,0,1-.1,1.38,35.13,35.13,0,0,0-.63-5.07A20.57,20.57,0,0,0,301,224.37,32.39,32.39,0,0,0,295.91,224Z"></path></g><g style="opacity:0.30000000000000004"><path d="M307.21,256.84a4.44,4.44,0,0,1-.44-.56l-1.21-1.67.15-.09.73,1.24-.18.11a22.6,22.6,0,0,1-3.14-6.07,23.25,23.25,0,0,1-1.17-9.45,12.21,12.21,0,0,1,.47-2.73,4.16,4.16,0,0,1,.7-1.31,2.39,2.39,0,0,1,1.33-.83,2.34,2.34,0,0,1,1.58.21,4.16,4.16,0,0,1,1.26.94,10.12,10.12,0,0,1,1.71,2.62,43.78,43.78,0,0,1,4.2,12.46,43.21,43.21,0,0,1,.69,9.13,41,41,0,0,1-.33,4.35,20.91,20.91,0,0,1-.84,4.12,4.89,4.89,0,0,1-1.07,1.79,3.18,3.18,0,0,1-1.84.94,5.4,5.4,0,0,1-3.65-1.08,16.67,16.67,0,0,1-2.63-2.34,28.84,28.84,0,0,1-2.12-2.44,30.39,30.39,0,0,1-4.68-8.51c-.38-1.08-.62-1.94-.77-2.53l-.15-.67a.67.67,0,0,1,0-.23.61.61,0,0,1,.08.22c.06.18.12.39.2.66.18.57.45,1.42.86,2.48A31.67,31.67,0,0,0,301.7,266a28.46,28.46,0,0,0,2.11,2.39,17.71,17.71,0,0,0,2.59,2.26,5,5,0,0,0,3.34,1,3.32,3.32,0,0,0,2.53-2.44,21.2,21.2,0,0,0,.8-4,43.06,43.06,0,0,0,.31-4.3,44.66,44.66,0,0,0-4.83-21.36,9.81,9.81,0,0,0-1.61-2.51,2.69,2.69,0,0,0-2.39-1,2.51,2.51,0,0,0-1.7,1.83,12.32,12.32,0,0,0-.47,2.62,23.38,23.38,0,0,0,1.06,9.3,23.84,23.84,0,0,0,3,6.06l-.18.11-.69-1.25.15-.1,1.14,1.72A3.23,3.23,0,0,1,307.21,256.84Z"></path></g><g style="opacity:0.30000000000000004"><path d="M319.46,286a2.43,2.43,0,0,1-.77.74,6.25,6.25,0,0,1-2.72,1.05,13.55,13.55,0,0,1-4.32-.11,24.27,24.27,0,0,1-13.12-6.51,20.78,20.78,0,0,1-1.95-2.14,4,4,0,0,1-.59-.89c.07-.06,1,1.15,2.79,2.76a26.61,26.61,0,0,0,8,4.92,25.67,25.67,0,0,0,5,1.39,14,14,0,0,0,4.19.21A7.14,7.14,0,0,0,319.46,286Z"></path></g><path d="M320,195.26h0a1.88,1.88,0,0,0,1.88-1.88V176h-3.75v17.43A1.88,1.88,0,0,0,320,195.26Z" style="fill:#263238"></path><path d="M313.58,195.26h0a1.88,1.88,0,0,0,1.88-1.88V176h-3.75v17.43A1.88,1.88,0,0,0,313.58,195.26Z" style="fill:#263238"></path><path d="M307,195.61h0a1.88,1.88,0,0,0,1.87-1.88l.17-17h-3.75l-.17,17A1.88,1.88,0,0,0,307,195.61Z" style="fill:#263238"></path><path d="M299.93,195.26h0a1.88,1.88,0,0,0,1.88-1.88V176h-3.75v17.43A1.88,1.88,0,0,0,299.93,195.26Z" style="fill:#263238"></path><path d="M294.15,195.26h0a1.88,1.88,0,0,0,1.87-1.88V176h-3.74v17.43A1.87,1.87,0,0,0,294.15,195.26Z" style="fill:#263238"></path><path d="M292.17,164.82h29.75a0,0,0,0,1,0,0v6.59a11.53,11.53,0,0,1-11.53,11.53H303.7a11.53,11.53,0,0,1-11.53-11.53v-6.59A0,0,0,0,1,292.17,164.82Z" transform="translate(614.08 347.75) rotate(180)" style="fill:#263238"></path><rect x="295.11" y="297.22" width="24.35" height="4.86" style="fill:#263238"></rect><path d="M209,311a12.09,12.09,0,1,1-4.68-16.44A12.09,12.09,0,0,1,209,311Z" style="fill:#ffbf9d"></path><path d="M191.4,314.34c-.08,0,.49-1,1.11-2.66a20.12,20.12,0,0,0,1.22-6.75,19.81,19.81,0,0,0-1.19-6.76c-.6-1.66-1.17-2.62-1.09-2.66s.2.2.47.63a14,14,0,0,1,1,1.9,17.89,17.89,0,0,1,0,13.78,12.8,12.8,0,0,1-1,1.9C191.59,314.14,191.43,314.36,191.4,314.34Z" style="fill:#ff9a6c"></path><path d="M203.37,294.21c.07.07-.87,1.05-2.12,2.84a28.1,28.1,0,0,0-3.68,7.61,27.61,27.61,0,0,0-1.2,8.36c0,2.18.26,3.52.16,3.54a4.21,4.21,0,0,1-.23-.93,17.67,17.67,0,0,1-.3-2.6,24.9,24.9,0,0,1,.11-3.87,29.09,29.09,0,0,1,1-4.66,27.32,27.32,0,0,1,1.81-4.39,23.75,23.75,0,0,1,2.08-3.28,18.75,18.75,0,0,1,1.69-2A3.78,3.78,0,0,1,203.37,294.21Z" style="fill:#ff9a6c"></path><path d="M206.68,308.84a1.2,1.2,0,0,1-.24-.32,6.06,6.06,0,0,1-.48-1,6.54,6.54,0,0,1-.09-4.16,2,2,0,0,1,.88-1.19,1.14,1.14,0,0,1,.87-.06,1.48,1.48,0,0,1,.69.54,3.69,3.69,0,0,1,.58,1.57,10.7,10.7,0,0,1,.14,1.72,10.62,10.62,0,0,1-1.46,5.41,3.71,3.71,0,0,1-1.47,1.5,2.21,2.21,0,0,1-2.13-.16,3.15,3.15,0,0,1-1.28-1.59,10.59,10.59,0,0,1-.42-3.68,19.71,19.71,0,0,1,1.13-6.07,18.29,18.29,0,0,1,1.83-3.74,8.69,8.69,0,0,1,.65-.92c.16-.21.25-.31.26-.3a29.19,29.19,0,0,0-2.39,5.08,20.34,20.34,0,0,0-1,6,10.07,10.07,0,0,0,.41,3.48,2.75,2.75,0,0,0,1.08,1.34,1.69,1.69,0,0,0,1.64.13,3.24,3.24,0,0,0,1.24-1.3,9.93,9.93,0,0,0,.8-1.68,10.14,10.14,0,0,0,.63-3.46,9.66,9.66,0,0,0-.12-1.64,3.18,3.18,0,0,0-.47-1.4.83.83,0,0,0-1-.37,1.72,1.72,0,0,0-.71,1,6.62,6.62,0,0,0-.07,4C206.43,308.35,206.73,308.81,206.68,308.84Z" style="fill:#ff9a6c"></path><path d="M188.06,311.59c-.07-.06.37-.51.81-1.39a6.27,6.27,0,0,0,.65-3.66,6.38,6.38,0,0,0-1.61-3.35c-.66-.72-1.21-1-1.16-1.11s.65.15,1.42.85a5.89,5.89,0,0,1,1,7.45C188.64,311.27,188.09,311.63,188.06,311.59Z" style="fill:#ff9a6c"></path><g style="opacity:0.30000000000000004"><path d="M214.52,174a8.35,8.35,0,0,0-.65-3.28c-.44-1-1.88-1.76-2.77-1a2.8,2.8,0,0,0-.69,2.27v29.38l.5.94a8.18,8.18,0,0,0,3-5.46,59.65,59.65,0,0,0,.66-7.29C214.56,182.45,214.57,181,214.52,174Z"></path></g><rect x="186.39" y="178.96" width="24.23" height="118.08" style="fill:#892CDC"></rect><g style="opacity:0.30000000000000004"><path d="M201.43,179.74a6.64,6.64,0,0,1,0,1.4c0,.9-.1,2.2-.22,3.81a44.33,44.33,0,0,1-2.49,12.33,21.94,21.94,0,0,1-7.48,10,14.76,14.76,0,0,1-3.38,1.8,7.67,7.67,0,0,1-1,.32,1.36,1.36,0,0,1-.35.07A23.29,23.29,0,0,0,191,207a22.59,22.59,0,0,0,7.22-9.92,48.53,48.53,0,0,0,2.6-12.18c.16-1.53.28-2.8.38-3.79A7.58,7.58,0,0,1,201.43,179.74Z"></path></g><g style="opacity:0.30000000000000004"><path d="M209.71,208.9c0,.09-1.61.54-4.11,1.63a38.66,38.66,0,0,0-4.24,2.19,40.05,40.05,0,0,0-4.77,3.37,41.9,41.9,0,0,0-4.19,4.08,39.74,39.74,0,0,0-2.93,3.77c-1.53,2.26-2.27,3.79-2.36,3.75a5.93,5.93,0,0,1,.46-1.11,27,27,0,0,1,1.59-2.84,35.68,35.68,0,0,1,2.87-3.89,35.07,35.07,0,0,1,9.08-7.55,34.56,34.56,0,0,1,4.35-2.11,24.7,24.7,0,0,1,3.08-1A4.58,4.58,0,0,1,209.71,208.9Z"></path></g><g style="opacity:0.30000000000000004"><path d="M197.4,251.55s0-.07-.07-.22-.09-.38-.14-.68a16.66,16.66,0,0,1-.27-2.64,19.32,19.32,0,0,1,.32-4.19,11.74,11.74,0,0,1,.72-2.55,2.84,2.84,0,0,1,.94-1.17,2,2,0,0,1,1.58-.26,3.23,3.23,0,0,1,2.22,2.4,21.73,21.73,0,0,1,.53,3.49,40.06,40.06,0,0,1,0,7.74,23.68,23.68,0,0,1-.7,4.15,6.32,6.32,0,0,1-2.47,3.69,3.65,3.65,0,0,1-2.29.54,4.44,4.44,0,0,1-2.21-.89,9,9,0,0,1-2.82-3.79,22.85,22.85,0,0,1-1.56-9.06,28.76,28.76,0,0,1,1.49-8.44,37.88,37.88,0,0,1,7.23-12.48,63.61,63.61,0,0,1,6.9-6.89c.87-.75,1.56-1.31,2-1.69l.55-.42a1,1,0,0,1,.2-.13.72.72,0,0,1-.17.17l-.51.46-2,1.77a67.21,67.21,0,0,0-6.74,7,37.87,37.87,0,0,0-7.06,12.39,28.25,28.25,0,0,0-1.44,8.3A22.61,22.61,0,0,0,193.2,257a8.61,8.61,0,0,0,2.65,3.58,4.06,4.06,0,0,0,2,.79,3.19,3.19,0,0,0,2-.46,5.87,5.87,0,0,0,2.25-3.4,23.82,23.82,0,0,0,.71-4.06,41,41,0,0,0,.06-7.66,19.85,19.85,0,0,0-.49-3.41,2.89,2.89,0,0,0-1.92-2.16,1.6,1.6,0,0,0-1.3.21,2.44,2.44,0,0,0-.83,1,11.09,11.09,0,0,0-.73,2.46,19.45,19.45,0,0,0-.41,4.13,21.63,21.63,0,0,0,.17,2.63A7.74,7.74,0,0,1,197.4,251.55Z"></path></g><g style="opacity:0.30000000000000004"><path d="M208.79,267.92a4,4,0,0,1-.4,1,18.3,18.3,0,0,1-1.49,2.6,17.56,17.56,0,0,1-7.5,6.32,13.66,13.66,0,0,1-9.76.29,10.49,10.49,0,0,1-2.65-1.41,3.51,3.51,0,0,1-.81-.74,17.18,17.18,0,0,0,3.58,1.8,13.79,13.79,0,0,0,9.44-.43,18.05,18.05,0,0,0,7.4-6.05C208.07,269.31,208.7,267.88,208.79,267.92Z"></path></g><g style="opacity:0.30000000000000004"><path d="M209.77,286.4c0,.09-1.47.14-3.82.51a36.76,36.76,0,0,0-16.82,7.27c-1.88,1.46-2.93,2.5-3,2.43a3.93,3.93,0,0,1,.67-.79,26.72,26.72,0,0,1,2.09-1.93,33,33,0,0,1,17-7.35,22.92,22.92,0,0,1,2.83-.19A3.87,3.87,0,0,1,209.77,286.4Z"></path></g><path d="M184.85,193.65h0a1.87,1.87,0,0,1-1.87-1.87V174.34h3.74v17.44A1.87,1.87,0,0,1,184.85,193.65Z" style="fill:#263238"></path><path d="M191.31,193.65h0a1.88,1.88,0,0,1-1.88-1.87V174.34h3.75v17.44A1.87,1.87,0,0,1,191.31,193.65Z" style="fill:#263238"></path><path d="M197.93,194h0a1.88,1.88,0,0,1-1.87-1.88l-.17-17h3.75l.17,17A1.88,1.88,0,0,1,197.93,194Z" style="fill:#263238"></path><path d="M205,193.65h0a1.87,1.87,0,0,1-1.87-1.87V174.34h3.74v17.44A1.87,1.87,0,0,1,205,193.65Z" style="fill:#263238"></path><path d="M210.74,193.65h0a1.87,1.87,0,0,1-1.87-1.87V174.34h3.75v17.44A1.88,1.88,0,0,1,210.74,193.65Z" style="fill:#263238"></path><path d="M194.51,163.21h6.69a11.53,11.53,0,0,1,11.53,11.53v6.59a0,0,0,0,1,0,0H183a0,0,0,0,1,0,0v-6.59A11.53,11.53,0,0,1,194.51,163.21Z" style="fill:#263238"></path><rect x="185.5" y="297.22" width="25.85" height="4.86" style="fill:#263238"></rect></g></svg>